<svg width="761" height="643" viewBox="0 0 761 643" fill="none" xmlns="http://www.w3.org/2000/svg">
    <path
        d="M371.019 3.19077C377.401 -1.0636 385.715 -1.06361 392.097 3.19077L573.979 124.44C580.581 128.841 589.223 128.677 595.652 124.028L729.863 26.9749C744.272 16.5556 763.833 29.7623 759.396 46.9818C723.383 186.753 624.886 567.511 617.171 580.872C569.598 663.267 191.4 661.923 144.603 580.872C138.691 572.247 37.415 186.898 0.659668 46.5843C-3.837 29.4172 15.6051 16.1722 30.0679 26.4564L167.495 124.177C173.916 128.743 182.488 128.872 189.043 124.502L371.019 3.19077ZM479.47 208.052C479.47 200.135 473.166 194.939 465.378 196.547L385.521 213.991C376.126 215.97 371.058 221.166 371.058 229.454L371.428 405.369C372.17 413.658 368.091 419.225 360.797 420.709L335.456 426.03C304.181 432.462 289.47 448.173 289.47 471.925C289.47 495.677 307.642 512.255 333.602 512.255C356.718 512.255 390.836 495.43 390.836 449.782V305.288C390.836 296.382 392.691 294.278 400.85 292.422L471.435 276.959C476.38 275.846 479.47 272.134 479.47 267.062V208.052Z"
        fill="#FC9521"
        style="fill:white;fill-opacity:1;" />
</svg>